<?xml version="1.0" standalone="no"?>
<!DOCTYPE svg PUBLIC "-//W3C//DTD SVG 20010904//EN"
 "http://www.w3.org/TR/2001/REC-SVG-20010904/DTD/svg10.dtd">
<svg version="1.0" xmlns="http://www.w3.org/2000/svg"
 width="385.000000pt" height="395.000000pt" viewBox="0 0 385.000000 395.000000"
 preserveAspectRatio="xMidYMid meet">

<g transform="translate(0.000000,395.000000) scale(0.100000,-0.100000)"
fill="#000000" stroke="none">
<path d="M1171 3695 c-42 -25 -47 -25 -285 -26 -132 -1 -268 -4 -301 -8 -57
-6 -60 -8 -63 -34 -7 -56 -1 -57 252 -57 127 0 261 -3 297 -6 l66 -7 21 -51
c20 -51 31 -102 53 -231 7 -38 23 -101 36 -140 14 -38 27 -83 30 -100 3 -16
10 -35 15 -42 5 -7 14 -56 18 -108 8 -89 11 -101 47 -152 66 -97 71 -106 94
-178 12 -38 26 -74 31 -80 4 -5 8 -16 8 -25 0 -8 18 -51 41 -95 114 -222 119
-234 119 -289 0 -29 -6 -72 -14 -97 -8 -24 -17 -65 -21 -91 -3 -25 -13 -52
-20 -58 -8 -7 -15 -21 -15 -31 0 -17 -18 -66 -41 -111 -5 -10 -9 -33 -9 -51 0
-18 -5 -38 -11 -44 -15 -15 -27 -75 -39 -198 -5 -55 -14 -122 -19 -150 -6 -27
-10 -91 -10 -141 l-1 -92 44 -59 c24 -33 89 -107 143 -164 55 -57 124 -133
153 -168 51 -62 52 -64 41 -101 -6 -20 -11 -51 -11 -67 0 -16 -9 -48 -20 -71
-12 -24 -25 -61 -30 -85 -5 -23 -15 -62 -22 -85 -12 -40 -11 -45 7 -58 28 -21
201 -20 209 1 4 11 13 14 31 9 32 -8 65 26 65 67 0 15 5 31 10 34 14 8 13 95
-2 149 -10 36 -9 52 6 98 9 31 15 66 12 79 -5 19 6 37 49 84 30 33 67 78 82
100 15 22 43 59 61 82 48 60 70 205 74 483 2 180 -21 315 -78 460 -45 118 -80
294 -65 336 6 17 11 36 11 43 0 12 19 56 85 196 18 39 39 99 46 135 8 42 26
86 51 126 21 34 38 64 38 68 0 4 12 33 27 64 15 31 32 94 39 138 7 45 19 97
27 115 9 19 21 53 28 77 7 24 21 48 31 53 13 7 18 21 18 49 0 100 29 234 68
321 l17 37 135 7 c74 4 198 5 275 2 77 -3 152 -3 167 0 33 6 44 43 26 84 l-13
29 -294 0 c-266 0 -295 2 -306 17 -9 13 -32 18 -83 21 -64 4 -71 2 -77 -17
l-6 -21 -586 0 -586 0 -23 25 c-31 34 -93 34 -153 0z m1321 -148 c41 -20 27
-71 -63 -230 -33 -58 -42 -86 -48 -143 -6 -64 -11 -76 -49 -121 -23 -28 -48
-56 -56 -62 -8 -7 -27 -43 -41 -80 l-26 -68 -69 -17 c-39 -10 -74 -14 -80 -11
-16 10 -12 103 6 137 10 20 14 42 10 62 -4 17 -11 54 -15 81 -16 93 -47 131
-127 155 -55 16 -110 0 -154 -45 -29 -30 -34 -43 -38 -97 -2 -35 -9 -68 -14
-75 -14 -18 0 -88 23 -109 20 -18 26 -78 10 -103 -12 -18 -54 -10 -125 24 -45
21 -58 34 -77 73 -12 26 -44 77 -71 113 -44 61 -48 71 -48 125 -1 63 -18 125
-43 152 -25 27 -87 155 -87 179 0 12 4 33 10 48 l10 26 572 -3 c315 -2 581 -7
590 -11z m-526 -2162 c9 -27 20 -84 23 -125 5 -54 17 -96 40 -147 19 -40 31
-78 27 -85 -8 -18 -30 -52 -36 -58 -26 -24 -53 -94 -59 -155 -4 -38 -12 -79
-18 -90 -10 -17 -15 -12 -46 53 -20 40 -39 87 -43 105 -12 58 -63 149 -100
181 l-37 32 57 108 c30 59 61 126 68 149 6 23 25 61 42 85 l30 43 18 -23 c10
-13 25 -45 34 -73z"/>
</g>
</svg>
